<?xml version="1.0" encoding="UTF-8" standalone="no"?>
<!DOCTYPE svg PUBLIC "-//W3C//DTD SVG 1.1//EN"
 "http://www.w3.org/Graphics/SVG/1.1/DTD/svg11.dtd">
<!-- Generated by graphviz version 12.2.1 (20241206.2353)
 -->
<!-- Title: G Pages: 1 -->
<svg width="182pt" height="333pt"
 viewBox="0.00 0.00 182.00 333.12" xmlns="http://www.w3.org/2000/svg" xmlns:xlink="http://www.w3.org/1999/xlink">
<g id="graph0" class="graph" transform="scale(1 1) rotate(0) translate(4 329.12)">
<title>G</title>
<polygon fill="white" stroke="none" points="-4,4 -4,-329.12 178,-329.12 178,4 -4,4"/>
<!-- template -->
<g id="node1" class="node">
<title>template</title>
<polygon fill="lightgrey" stroke="black" points="124.12,-325.12 47.62,-325.12 47.62,-289.12 130.12,-289.12 130.12,-319.12 124.12,-325.12"/>
<polyline fill="none" stroke="black" points="124.12,-325.12 124.12,-319.12"/>
<polyline fill="none" stroke="black" points="130.12,-319.12 124.12,-319.12"/>
<text text-anchor="middle" x="88.88" y="-297.82" font-family="Times,serif" font-size="24.00" fill="blue">template</text>
</g>
<!-- metha -->
<g id="node2" class="node">
<title>metha</title>
<polygon fill="lightgrey" stroke="black" points="118.88,-253.12 52.88,-253.12 52.88,-217.12 124.88,-217.12 124.88,-247.12 118.88,-253.12"/>
<polyline fill="none" stroke="black" points="118.88,-253.12 118.88,-247.12"/>
<polyline fill="none" stroke="black" points="124.88,-247.12 118.88,-247.12"/>
<text text-anchor="middle" x="88.88" y="-225.82" font-family="Times,serif" font-size="24.00" fill="blue">metha</text>
</g>
<!-- template&#45;&gt;metha -->
<g id="edge1" class="edge">
<title>template&#45;&gt;metha</title>
<path fill="none" stroke="black" d="M88.88,-288.82C88.88,-281.53 88.88,-272.85 88.88,-264.66"/>
<polygon fill="black" stroke="black" points="92.38,-264.74 88.88,-254.74 85.38,-264.74 92.38,-264.74"/>
</g>
<!-- GNS3 -->
<g id="node3" class="node">
<title>GNS3</title>
<polygon fill="lightgrey" stroke="black" points="84.88,-181.12 12.88,-181.12 12.88,-145.12 84.88,-145.12 84.88,-181.12"/>
<text text-anchor="middle" x="48.88" y="-153.82" font-family="Times,serif" font-size="24.00" fill="blue">GNS3</text>
</g>
<!-- metha&#45;&gt;GNS3 -->
<g id="edge2" class="edge">
<title>metha&#45;&gt;GNS3</title>
<path fill="none" stroke="black" d="M78.99,-216.82C74.53,-209.02 69.17,-199.63 64.21,-190.95"/>
<polygon fill="black" stroke="black" points="67.4,-189.49 59.4,-182.54 61.32,-192.96 67.4,-189.49"/>
</g>
<!-- BatFish -->
<g id="node4" class="node">
<title>BatFish</title>
<polygon fill="lightgrey" stroke="black" points="174,-109.12 99.75,-109.12 99.75,-73.12 174,-73.12 174,-109.12"/>
<text text-anchor="middle" x="136.88" y="-81.83" font-family="Times,serif" font-size="24.00" fill="blue">BatFish</text>
</g>
<!-- metha&#45;&gt;BatFish -->
<g id="edge3" class="edge">
<title>metha&#45;&gt;BatFish</title>
<path fill="none" stroke="black" d="M94.76,-216.71C102.94,-192.52 117.82,-148.49 127.53,-119.78"/>
<polygon fill="black" stroke="black" points="130.72,-121.26 130.61,-110.67 124.09,-119.02 130.72,-121.26"/>
</g>
<!-- Forward -->
<g id="node5" class="node">
<title>Forward</title>
<polygon fill="lightgrey" stroke="black" points="81.75,-109.12 0,-109.12 0,-73.12 81.75,-73.12 81.75,-109.12"/>
<text text-anchor="middle" x="40.88" y="-81.83" font-family="Times,serif" font-size="24.00" fill="blue">Forward</text>
</g>
<!-- GNS3&#45;&gt;Forward -->
<g id="edge4" class="edge">
<title>GNS3&#45;&gt;Forward</title>
<path fill="none" stroke="black" d="M46.9,-144.82C46.06,-137.53 45.07,-128.85 44.14,-120.66"/>
<polygon fill="black" stroke="black" points="47.61,-120.27 43,-110.73 40.66,-121.07 47.61,-120.27"/>
</g>
<!-- DataSet -->
<g id="node6" class="node">
<title>DataSet</title>
<path fill="lightgrey" stroke="black" d="M126.75,-33.75C126.75,-35.61 109.77,-37.12 88.88,-37.12 67.98,-37.12 51,-35.61 51,-33.75 51,-33.75 51,-3.38 51,-3.38 51,-1.51 67.98,0 88.88,0 109.77,0 126.75,-1.51 126.75,-3.38 126.75,-3.38 126.75,-33.75 126.75,-33.75"/>
<path fill="none" stroke="black" d="M126.75,-33.75C126.75,-31.89 109.77,-30.38 88.88,-30.38 67.98,-30.38 51,-31.89 51,-33.75"/>
<text text-anchor="middle" x="88.88" y="-9.26" font-family="Times,serif" font-size="24.00" fill="blue">DataSet</text>
</g>
<!-- BatFish&#45;&gt;DataSet -->
<g id="edge6" class="edge">
<title>BatFish&#45;&gt;DataSet</title>
<path fill="none" stroke="black" d="M125.01,-72.68C119.68,-64.85 113.28,-55.44 107.35,-46.72"/>
<polygon fill="black" stroke="black" points="110.31,-44.85 101.79,-38.55 104.52,-48.78 110.31,-44.85"/>
</g>
<!-- Forward&#45;&gt;DataSet -->
<g id="edge5" class="edge">
<title>Forward&#45;&gt;DataSet</title>
<path fill="none" stroke="black" d="M52.74,-72.68C58.07,-64.85 64.47,-55.44 70.4,-46.72"/>
<polygon fill="black" stroke="black" points="73.23,-48.78 75.96,-38.55 67.44,-44.85 73.23,-48.78"/>
</g>
</g>
</svg>
